<svg viewBox="0 0 192 192" fill="none" xmlns="http://www.w3.org/2000/svg">
  <rect width="192" height="192" rx="40" fill="#0f0f1a"/>
  <defs>
    <linearGradient id="g" x1="0" y1="0" x2="1" y2="1">
      <stop offset="0%" stop-color="#6366f1"/>
      <stop offset="100%" stop-color="#a855f7"/>
    </linearGradient>
  </defs>
  <rect x="20" y="20" width="68" height="68" rx="10" fill="url(#g)"/>
  <rect x="104" y="20" width="68" height="68" rx="10" fill="url(#g)"/>
  <rect x="20" y="104" width="68" height="68" rx="10" fill="url(#g)"/>
  <rect x="30" y="30" width="48" height="48" rx="6" fill="#0f0f1a"/>
  <rect x="114" y="30" width="48" height="48" rx="6" fill="#0f0f1a"/>
  <rect x="30" y="114" width="48" height="48" rx="6" fill="#0f0f1a"/>
  <rect x="42" y="42" width="24" height="24" rx="4" fill="url(#g)"/>
  <rect x="126" y="42" width="24" height="24" rx="4" fill="url(#g)"/>
  <rect x="42" y="126" width="24" height="24" rx="4" fill="url(#g)"/>
  <rect x="104" y="104" width="28" height="28" rx="6" fill="url(#g)" opacity="0.8"/>
  <rect x="140" y="104" width="28" height="28" rx="6" fill="url(#g)" opacity="0.8"/>
  <rect x="104" y="140" width="28" height="28" rx="6" fill="url(#g)" opacity="0.8"/>
  <rect x="140" y="140" width="28" height="28" rx="6" fill="url(#g)" opacity="0.8"/>
</svg>
