<svg viewBox="0 0 512 512" fill="none" xmlns="http://www.w3.org/2000/svg">
  <rect width="512" height="512" rx="100" fill="#0f0f1a"/>
  <defs>
    <linearGradient id="g" x1="0" y1="0" x2="1" y2="1">
      <stop offset="0%" stop-color="#6366f1"/>
      <stop offset="100%" stop-color="#a855f7"/>
    </linearGradient>
  </defs>
  <rect x="48" y="48" width="180" height="180" rx="24" fill="url(#g)"/>
  <rect x="284" y="48" width="180" height="180" rx="24" fill="url(#g)"/>
  <rect x="48" y="284" width="180" height="180" rx="24" fill="url(#g)"/>
  <rect x="76" y="76" width="124" height="124" rx="12" fill="#0f0f1a"/>
  <rect x="312" y="76" width="124" height="124" rx="12" fill="#0f0f1a"/>
  <rect x="76" y="312" width="124" height="124" rx="12" fill="#0f0f1a"/>
  <rect x="106" y="106" width="64" height="64" rx="8" fill="url(#g)"/>
  <rect x="342" y="106" width="64" height="64" rx="8" fill="url(#g)"/>
  <rect x="106" y="342" width="64" height="64" rx="8" fill="url(#g)"/>
  <rect x="284" y="284" width="76" height="76" rx="14" fill="url(#g)" opacity="0.8"/>
  <rect x="388" y="284" width="76" height="76" rx="14" fill="url(#g)" opacity="0.8"/>
  <rect x="284" y="388" width="76" height="76" rx="14" fill="url(#g)" opacity="0.8"/>
  <rect x="388" y="388" width="76" height="76" rx="14" fill="url(#g)" opacity="0.8"/>
</svg>
