<svg viewBox="0 0 32 32" fill="none" xmlns="http://www.w3.org/2000/svg">
  <defs>
    <linearGradient id="g" x1="0" y1="0" x2="1" y2="1">
      <stop offset="0%" stop-color="#6366f1"/>
      <stop offset="100%" stop-color="#a855f7"/>
    </linearGradient>
  </defs>
  <rect x="2" y="2" width="12" height="12" rx="2" fill="url(#g)"/>
  <rect x="18" y="2" width="12" height="12" rx="2" fill="url(#g)"/>
  <rect x="2" y="18" width="12" height="12" rx="2" fill="url(#g)"/>
  <rect x="4" y="4" width="8" height="8" rx="1" fill="#0f0f1a"/>
  <rect x="20" y="4" width="8" height="8" rx="1" fill="#0f0f1a"/>
  <rect x="4" y="20" width="8" height="8" rx="1" fill="#0f0f1a"/>
  <rect x="6" y="6" width="4" height="4" rx="0.5" fill="url(#g)"/>
  <rect x="22" y="6" width="4" height="4" rx="0.5" fill="url(#g)"/>
  <rect x="6" y="22" width="4" height="4" rx="0.5" fill="url(#g)"/>
  <rect x="18" y="18" width="5" height="5" rx="1" fill="url(#g)" opacity="0.7"/>
  <rect x="25" y="18" width="5" height="5" rx="1" fill="url(#g)" opacity="0.7"/>
  <rect x="18" y="25" width="5" height="5" rx="1" fill="url(#g)" opacity="0.7"/>
  <rect x="25" y="25" width="5" height="5" rx="1" fill="url(#g)" opacity="0.7"/>
</svg>
